<svg width="39" height="39" viewBox="0 0 39 39" fill="none" xmlns="http://www.w3.org/2000/svg">
<path fill-rule="evenodd" clip-rule="evenodd" d="M24.82 4.42926L19.9232 -0.558594L15.0265 4.42926L8.13316 3.27224L7.10339 10.1857L0.846481 13.3015L4.07703 19.4999L0.846481 25.6983L7.10339 28.8141L8.13316 35.7276L15.0265 34.5705L19.9232 39.5584L24.82 34.5705L31.7133 35.7276L32.7431 28.8141L39 25.6983L35.7694 19.4999L39 13.3015L32.7431 10.1857L31.7133 3.27224L24.82 4.42926ZM29.4184 6.43095L23.8668 7.36275L19.9232 3.34578L15.9796 7.36275L10.4281 6.43095L9.59877 11.9987L4.55976 14.508L7.16149 19.4999L4.55976 24.4918L9.59877 27.0011L10.4281 32.5689L15.9796 31.637L19.9232 35.654L23.8668 31.637L29.4184 32.5689L30.2477 27.0011L35.2867 24.4918L32.685 19.4999L35.2867 14.508L30.2477 11.9987L29.4184 6.43095Z" fill="#FF5900"/>
</svg>
